<svg width="243" height="150" viewBox="0 0 243 150" fill="none" xmlns="http://www.w3.org/2000/svg">
<path d="M32.677 66.4637H24.9002C24.6267 66.4637 24.3645 66.5864 24.1711 66.8047C23.9778 67.023 23.8691 67.3191 23.8691 67.6279V71.4819C23.8691 71.7906 23.9778 72.0867 24.1711 72.305C24.3645 72.5233 24.6267 72.646 24.9002 72.646H26.1889V78.4206H31.3882V72.646H32.677C32.9504 72.646 33.2127 72.5233 33.406 72.305C33.5994 72.0867 33.708 71.7906 33.708 71.4819V67.6279C33.708 67.3191 33.5994 67.023 33.406 66.8047C33.2127 66.5864 32.9504 66.4637 32.677 66.4637Z" fill="#8B1A10"/>
<path d="M40.4662 101.736C35.7035 93.8671 33.2687 84.4984 33.5106 74.9717C33.515 74.7519 33.4518 74.5372 33.3318 74.364C33.2118 74.1908 33.0424 74.0698 32.8524 74.0216V72.3563H24.6391V73.9985H24.526C24.4101 73.9987 24.2956 74.0258 24.1894 74.0782C24.0833 74.1306 23.9879 74.2071 23.9091 74.303C23.8303 74.3989 23.7699 74.5121 23.7316 74.6356C23.6934 74.759 23.678 74.8901 23.6866 75.0205C24.3337 85.2044 22.1487 94.3372 17.1318 102.419C16.8431 102.883 16.6956 103.441 16.7114 104.008L17.6095 135.374C17.6311 136.073 17.8912 136.736 18.3354 137.225C18.7797 137.713 19.3738 137.989 19.9938 137.994H38.5711C39.1981 137.989 39.7984 137.707 40.2441 137.208C40.6897 136.71 40.9454 136.035 40.9568 135.327L41.3029 104.874C41.3131 103.756 41.0213 102.661 40.4662 101.736Z" fill="#3F3D56"/>
<path opacity="0.2" d="M31.0558 67.7196C31.0558 68.3857 30.8215 69.0245 30.4043 69.4955C29.9871 69.9665 29.4213 70.2311 28.8314 70.2311C28.2414 70.2311 27.6756 69.9665 27.2585 69.4955C26.8413 69.0245 26.6069 68.3857 26.6069 67.7196" fill="black"/>
<path d="M37.5255 112.154H35.2759C35.0611 110.581 34.3547 109.146 33.2844 108.11C32.2141 107.073 30.8506 106.503 29.4405 106.503C28.0304 106.503 26.6669 107.073 25.5966 108.11C24.5263 109.146 23.8199 110.581 23.6051 112.154H21.3554C21.116 112.154 20.8795 112.213 20.662 112.326C20.4445 112.439 20.2513 112.603 20.0954 112.808C19.9396 113.013 19.8248 113.254 19.7591 113.514C19.6934 113.774 19.6782 114.047 19.7146 114.314L22.1581 132.247H36.1892L39.1572 114.374C39.2021 114.104 39.1937 113.825 39.1325 113.558C39.0713 113.292 38.9587 113.044 38.803 112.832C38.6472 112.62 38.4519 112.449 38.2311 112.332C38.0103 112.215 37.7694 112.154 37.5255 112.154Z" fill="#8B1A10"/>
<path d="M226.568 83.33L226.028 107.681L225.36 137.877H202.613L201.83 102.499L201.405 83.33H226.568Z" fill="#E6E6E6"/>
<path d="M215.496 70.375H212.276V118.558H215.496V70.375Z" fill="#8B1A10"/>
<path d="M224.957 101.678L224.348 136.289H203.615L202.901 95.7386C204.769 95.1463 206.725 94.9946 208.647 95.2931C210.569 95.5916 212.416 96.3338 214.073 97.4736C217.537 99.7868 221.429 101.032 224.957 101.678Z" fill="#3F3D56"/>
<path d="M208.748 105.574H205.792V108.911H208.748V105.574Z" fill="#E6E6E6"/>
<path d="M210.761 98.7561H207.805V102.093H210.761V98.7561Z" fill="#E6E6E6"/>
<path d="M217.107 103.476L214.733 101.489L212.973 104.169L215.346 106.156L217.107 103.476Z" fill="#E6E6E6"/>
<path d="M222.446 121.107L220.073 119.12L218.312 121.8L220.686 123.788L222.446 121.107Z" fill="#E6E6E6"/>
<path d="M213.388 112.798L211.014 110.81L209.254 113.49L211.627 115.478L213.388 112.798Z" fill="#E6E6E6"/>
<path d="M220.328 109.14C220.661 109.14 220.931 108.835 220.931 108.458C220.931 108.082 220.661 107.776 220.328 107.776C219.994 107.776 219.724 108.082 219.724 108.458C219.724 108.835 219.994 109.14 220.328 109.14Z" fill="#3F3D56"/>
<path d="M208.048 92.8756C208.382 92.8756 208.652 92.5704 208.652 92.1938C208.652 91.8172 208.382 91.512 208.048 91.512C207.715 91.512 207.444 91.8172 207.444 92.1938C207.444 92.5704 207.715 92.8756 208.048 92.8756Z" fill="#3F3D56"/>
<path d="M218.315 99.8216C218.648 99.8216 218.918 99.5163 218.918 99.1397C218.918 98.7632 218.648 98.4579 218.315 98.4579C217.981 98.4579 217.711 98.7632 217.711 99.1397C217.711 99.5163 217.981 99.8216 218.315 99.8216Z" fill="#3F3D56"/>
<path d="M121.5 137.395C158.183 137.395 187.92 106.638 187.92 68.6975C187.92 30.7569 158.183 0 121.5 0C84.8173 0 55.08 30.7569 55.08 68.6975C55.08 106.638 84.8173 137.395 121.5 137.395Z" fill="#8B1A10"/>
<path opacity="0.2" d="M121.639 117.495C110.468 117.494 99.6418 113.121 91.0062 105.119C82.3706 97.1172 76.4595 85.9822 74.2801 73.6113C72.1008 61.2404 73.7879 48.3991 79.0541 37.2752C84.3203 26.1513 92.8398 17.4332 103.161 12.6064C113.482 7.77954 124.966 7.14258 135.656 10.804C146.347 14.4655 155.582 22.1989 161.788 32.6864C167.995 43.1739 170.789 55.7668 169.694 68.3193C168.599 80.8718 163.683 92.6073 155.783 101.526C151.31 106.605 145.989 110.631 140.128 113.372C134.267 116.113 127.983 117.514 121.639 117.495ZM121.639 11.8182C96.6554 11.8182 76.3298 34.767 76.3298 62.9751C76.3298 91.1831 96.6554 114.132 121.639 114.132C146.622 114.132 166.948 91.1831 166.948 62.9751C166.948 34.767 146.622 11.8182 121.639 11.8182Z" fill="black"/>
<path d="M121.639 115.813C147.485 115.813 168.437 92.157 168.437 62.9753C168.437 33.7935 147.485 10.1371 121.639 10.1371C95.7931 10.1371 74.8408 33.7935 74.8408 62.9753C74.8408 92.157 95.7931 115.813 121.639 115.813Z" fill="#3F3D56"/>
<path d="M86.8362 41.8474C86.4813 41.0626 86.2669 40.2065 86.2052 39.328C86.1435 38.4496 86.2358 37.566 86.4768 36.7278C86.7177 35.8897 87.1026 35.1133 87.6095 34.4432C88.1164 33.7731 88.7352 33.2224 89.4307 32.8225C90.1262 32.4226 90.8847 32.1814 91.6628 32.1127C92.4409 32.044 93.2234 32.1491 93.9655 32.422C94.7076 32.695 95.3948 33.1304 95.9877 33.7034C96.5807 34.2764 97.0678 34.9757 97.4213 35.7613L110.643 65.0756C110.998 65.8604 111.212 66.7166 111.274 67.595C111.336 68.4735 111.243 69.3571 111.002 70.1952C110.761 71.0334 110.377 71.8097 109.87 72.4798C109.363 73.1499 108.744 73.7007 108.048 74.1005C107.353 74.5004 106.595 74.7416 105.816 74.8103C105.038 74.8791 104.256 74.7739 103.514 74.501C102.772 74.2281 102.084 73.7927 101.491 73.2197C100.899 72.6467 100.411 71.9474 100.058 71.1617L86.8362 41.8474Z" fill="#FF6584"/>
<path opacity="0.2" d="M88.3109 45.1172L87.7007 43.7642C90.7462 41.0924 94.3224 39.1275 98.2857 37.6781L98.896 39.0311C94.6064 40.0396 90.957 41.9061 88.3109 45.1172Z" fill="black"/>
<path opacity="0.2" d="M91.1587 51.431L90.5485 50.078C93.5939 47.4063 97.1702 45.4414 101.134 43.9919L101.744 45.3449C97.4542 46.3535 93.8048 48.2199 91.1587 51.431Z" fill="black"/>
<path opacity="0.2" d="M94.0064 57.7447L93.3962 56.3918C96.4417 53.72 100.018 51.7551 103.981 50.3057L104.591 51.6586C100.302 52.6672 96.6525 54.5336 94.0064 57.7447Z" fill="black"/>
<path opacity="0.2" d="M96.8541 64.0586L96.2439 62.7056C99.2894 60.0338 102.866 58.0689 106.829 56.6195L107.439 57.9725C103.15 58.981 99.5002 60.8475 96.8541 64.0586Z" fill="black"/>
<path opacity="0.2" d="M99.702 70.3724L99.0917 69.0194C102.137 66.3477 105.713 64.3828 109.677 62.9333L110.287 64.2863C105.997 65.2949 102.348 67.1613 99.702 70.3724Z" fill="black"/>
<path d="M76.9169 52.8217C76.5621 52.0368 76.3478 51.1808 76.2862 50.3024C76.2246 49.4239 76.3169 48.5404 76.5579 47.7023C76.7989 46.8642 77.1838 46.088 77.6906 45.4179C78.1974 44.7479 78.8163 44.1972 79.5117 43.7974C80.2072 43.3975 80.9656 43.1563 81.7436 43.0876C82.5217 43.0188 83.3041 43.1239 84.0462 43.3968C84.7882 43.6697 85.4754 44.105 86.0684 44.6779C86.6613 45.2508 87.1485 45.95 87.502 46.7356L100.724 76.0498C101.437 77.6344 101.563 79.4737 101.076 81.1636C100.588 82.8535 99.5262 84.2557 98.1235 85.0622C96.7208 85.8687 95.0919 86.0135 93.5947 85.4648C92.0975 84.9161 90.8544 83.7188 90.1386 82.1359L76.9169 52.8217Z" fill="#FF6584"/>
<path opacity="0.2" d="M78.3917 56.0913L77.7814 54.7383C80.8269 52.0666 84.4032 50.1016 88.3665 48.6522L88.9767 50.0052C84.6872 51.0137 81.0377 52.8802 78.3917 56.0913Z" fill="black"/>
<path opacity="0.2" d="M81.2394 62.4051L80.6292 61.0521C83.6746 58.3804 87.2509 56.4155 91.2142 54.9661L91.8244 56.319C87.5349 57.3276 83.8855 59.194 81.2394 62.4051Z" fill="black"/>
<path opacity="0.2" d="M84.0871 68.7191L83.4769 67.3661C86.5223 64.6944 90.0986 62.7295 94.0619 61.28L94.6722 62.633C90.3826 63.6415 86.7332 65.508 84.0871 68.7191Z" fill="black"/>
<path opacity="0.2" d="M86.9349 75.0328L86.3246 73.6798C89.3701 71.0081 92.9464 69.0432 96.9097 67.5938L97.5199 68.9467C93.2304 69.9553 89.5809 71.8217 86.9349 75.0328Z" fill="black"/>
<path opacity="0.2" d="M89.7826 81.3468L89.1724 79.9938C92.2178 77.3221 95.7941 75.3571 99.7574 73.9077L100.368 75.2607C96.0781 76.2692 92.4287 78.1357 89.7826 81.3468Z" fill="black"/>
<path d="M152.909 64.6564L152.951 64.6564C154.375 64.6699 155.769 64.1985 156.953 63.3036C158.136 62.4088 159.053 61.1321 159.584 59.64C160.676 56.5236 161.226 53.199 161.204 49.8476C161.13 35.6627 150.909 24.0257 138.347 23.8295C132.997 23.7449 127.785 25.7518 123.596 29.5099C119.407 33.268 116.497 38.5461 115.361 44.4494C114.225 50.3528 114.931 56.5182 117.361 61.9005C119.791 67.2828 123.795 71.5508 128.693 73.981C129.988 74.6281 131.425 74.8185 132.817 74.527C134.209 74.2356 135.491 73.476 136.494 72.3479C138.645 69.9062 141.203 67.9695 144.02 66.6495C146.838 65.3294 149.859 64.652 152.909 64.6564Z" fill="#E6E6E6"/>
<path d="M140.997 56.7307C145.226 56.7307 148.654 52.8597 148.654 48.0845C148.654 43.3093 145.226 39.4382 140.997 39.4382C136.767 39.4382 133.339 43.3093 133.339 48.0845C133.339 52.8597 136.767 56.7307 140.997 56.7307Z" fill="#F9A825"/>
<path d="M124.353 47.1121C124.851 47.1121 125.255 46.6561 125.255 46.0935C125.255 45.531 124.851 45.075 124.353 45.075C123.855 45.075 123.451 45.531 123.451 46.0935C123.451 46.6561 123.855 47.1121 124.353 47.1121Z" fill="#3F3D56"/>
<path d="M94.5724 48.0729C95.0707 48.0729 95.4746 47.6169 95.4746 47.0543C95.4746 46.4918 95.0707 46.0358 94.5724 46.0358C94.0742 46.0358 93.6703 46.4918 93.6703 47.0543C93.6703 47.6169 94.0742 48.0729 94.5724 48.0729Z" fill="#3F3D56"/>
<path d="M129.161 36.5561C129.659 36.5561 130.063 36.1 130.063 35.5375C130.063 34.9749 129.659 34.5189 129.161 34.5189C128.663 34.5189 128.259 34.9749 128.259 35.5375C128.259 36.1 128.663 36.5561 129.161 36.5561Z" fill="#3F3D56"/>
<path d="M129.135 65.9152C129.634 65.9152 130.038 65.4592 130.038 64.8966C130.038 64.3341 129.634 63.8781 129.135 63.8781C128.637 63.8781 128.233 64.3341 128.233 64.8966C128.233 65.4592 128.637 65.9152 129.135 65.9152Z" fill="#3F3D56"/>
<path d="M147.004 34.4524C147.502 34.4524 147.906 33.9964 147.906 33.4339C147.906 32.8713 147.502 32.4153 147.004 32.4153C146.506 32.4153 146.102 32.8713 146.102 33.4339C146.102 33.9964 146.506 34.4524 147.004 34.4524Z" fill="#3F3D56"/>
<path d="M88.7188 62.3126C89.2171 62.3126 89.621 61.8566 89.621 61.2941C89.621 60.7315 89.2171 60.2755 88.7188 60.2755C88.2206 60.2755 87.8167 60.7315 87.8167 61.2941C87.8167 61.8566 88.2206 62.3126 88.7188 62.3126Z" fill="#3F3D56"/>
<path d="M95.3131 76.9632C95.8114 76.9632 96.2153 76.5071 96.2153 75.9446C96.2153 75.3821 95.8114 74.926 95.3131 74.926C94.8149 74.926 94.411 75.3821 94.411 75.9446C94.411 76.5071 94.8149 76.9632 95.3131 76.9632Z" fill="#3F3D56"/>
<path d="M136.742 81.7088C138.622 81.7088 140.146 79.9883 140.146 77.866C140.146 75.7437 138.622 74.0232 136.742 74.0232C134.862 74.0232 133.339 75.7437 133.339 77.866C133.339 79.9883 134.862 81.7088 136.742 81.7088Z" fill="#FF6584"/>
<path opacity="0.2" d="M139.295 78.1062C139.295 78.8706 139.026 79.6036 138.547 80.1441C138.068 80.6846 137.419 80.9883 136.742 80.9883C136.065 80.9883 135.416 80.6846 134.937 80.1441C134.458 79.6036 134.189 78.8706 134.189 78.1062" fill="black"/>
<path opacity="0.2" d="M134.189 77.6257C134.189 76.8614 134.458 76.1283 134.937 75.5878C135.416 75.0473 136.065 74.7437 136.742 74.7437C137.419 74.7437 138.068 75.0473 138.547 75.5878C139.026 76.1283 139.295 76.8614 139.295 77.6257" fill="black"/>
<path d="M135.466 76.9053C135.583 76.9053 135.678 76.744 135.678 76.5451C135.678 76.3461 135.583 76.1848 135.466 76.1848C135.348 76.1848 135.253 76.3461 135.253 76.5451C135.253 76.744 135.348 76.9053 135.466 76.9053Z" fill="#FF6584"/>
<path d="M136.742 76.4249C136.86 76.4249 136.955 76.2636 136.955 76.0646C136.955 75.8656 136.86 75.7043 136.742 75.7043C136.625 75.7043 136.529 75.8656 136.529 76.0646C136.529 76.2636 136.625 76.4249 136.742 76.4249Z" fill="#FF6584"/>
<path d="M136.742 79.5472C136.86 79.5472 136.955 79.3859 136.955 79.1869C136.955 78.988 136.86 78.8267 136.742 78.8267C136.625 78.8267 136.529 78.988 136.529 79.1869C136.529 79.3859 136.625 79.5472 136.742 79.5472Z" fill="#FF6584"/>
<path d="M138.018 77.6258C138.136 77.6258 138.231 77.4645 138.231 77.2655C138.231 77.0666 138.136 76.9053 138.018 76.9053C137.901 76.9053 137.806 77.0666 137.806 77.2655C137.806 77.4645 137.901 77.6258 138.018 77.6258Z" fill="#FF6584"/>
<path d="M137.806 80.2676C137.923 80.2676 138.018 80.1064 138.018 79.9074C138.018 79.7084 137.923 79.5471 137.806 79.5471C137.688 79.5471 137.593 79.7084 137.593 79.9074C137.593 80.1064 137.688 80.2676 137.806 80.2676Z" fill="#FF6584"/>
<path d="M135.253 79.0667C135.371 79.0667 135.466 78.9054 135.466 78.7065C135.466 78.5075 135.371 78.3462 135.253 78.3462C135.136 78.3462 135.04 78.5075 135.04 78.7065C135.04 78.9054 135.136 79.0667 135.253 79.0667Z" fill="#FF6584"/>
<path d="M143.549 71.3814C145.429 71.3814 146.953 69.6609 146.953 67.5386C146.953 65.4163 145.429 63.6958 143.549 63.6958C141.669 63.6958 140.146 65.4163 140.146 67.5386C140.146 69.6609 141.669 71.3814 143.549 71.3814Z" fill="#FF6584"/>
<path opacity="0.2" d="M146.102 67.7787C146.102 68.5431 145.833 69.2761 145.354 69.8166C144.875 70.3571 144.226 70.6608 143.549 70.6608C142.872 70.6608 142.223 70.3571 141.744 69.8166C141.265 69.2761 140.996 68.5431 140.996 67.7787" fill="black"/>
<path opacity="0.2" d="M140.996 67.2983C140.996 66.534 141.265 65.8009 141.744 65.2604C142.223 64.7199 142.872 64.4163 143.549 64.4163C144.226 64.4163 144.875 64.7199 145.354 65.2604C145.833 65.8009 146.102 66.534 146.102 67.2983" fill="black"/>
<path d="M142.273 66.5778C142.39 66.5778 142.485 66.4165 142.485 66.2176C142.485 66.0186 142.39 65.8573 142.273 65.8573C142.155 65.8573 142.06 66.0186 142.06 66.2176C142.06 66.4165 142.155 66.5778 142.273 66.5778Z" fill="#FF6584"/>
<path d="M143.549 66.0975C143.667 66.0975 143.762 65.9362 143.762 65.7372C143.762 65.5382 143.667 65.377 143.549 65.377C143.432 65.377 143.336 65.5382 143.336 65.7372C143.336 65.9362 143.432 66.0975 143.549 66.0975Z" fill="#FF6584"/>
<path d="M143.549 69.2197C143.667 69.2197 143.762 69.0584 143.762 68.8594C143.762 68.6604 143.667 68.4991 143.549 68.4991C143.432 68.4991 143.336 68.6604 143.336 68.8594C143.336 69.0584 143.432 69.2197 143.549 69.2197Z" fill="#FF6584"/>
<path d="M144.825 67.2984C144.943 67.2984 145.038 67.1371 145.038 66.9381C145.038 66.7392 144.943 66.5779 144.825 66.5779C144.708 66.5779 144.613 66.7392 144.613 66.9381C144.613 67.1371 144.708 67.2984 144.825 67.2984Z" fill="#FF6584"/>
<path d="M144.613 69.9402C144.73 69.9402 144.825 69.779 144.825 69.58C144.825 69.381 144.73 69.2197 144.613 69.2197C144.495 69.2197 144.4 69.381 144.4 69.58C144.4 69.779 144.495 69.9402 144.613 69.9402Z" fill="#FF6584"/>
<path d="M142.06 68.7393C142.178 68.7393 142.273 68.578 142.273 68.3791C142.273 68.1801 142.178 68.0188 142.06 68.0188C141.943 68.0188 141.847 68.1801 141.847 68.3791C141.847 68.578 141.943 68.7393 142.06 68.7393Z" fill="#FF6584"/>
<path d="M150.356 76.6651C152.236 76.6651 153.76 74.9446 153.76 72.8223C153.76 70.7 152.236 68.9795 150.356 68.9795C148.476 68.9795 146.953 70.7 146.953 72.8223C146.953 74.9446 148.476 76.6651 150.356 76.6651Z" fill="#8B1A10"/>
<path opacity="0.2" d="M152.909 73.0625C152.909 73.8269 152.64 74.56 152.161 75.1004C151.682 75.6409 151.033 75.9446 150.356 75.9446C149.679 75.9446 149.03 75.6409 148.551 75.1004C148.072 74.56 147.804 73.8269 147.804 73.0625" fill="black"/>
<path opacity="0.2" d="M147.804 72.5822C147.804 71.8178 148.072 71.0847 148.551 70.5442C149.03 70.0037 149.679 69.7001 150.356 69.7001C151.033 69.7001 151.682 70.0037 152.161 70.5442C152.64 71.0847 152.909 71.8178 152.909 72.5822" fill="black"/>
<path d="M149.08 71.8616C149.197 71.8616 149.293 71.7003 149.293 71.5014C149.293 71.3024 149.197 71.1411 149.08 71.1411C148.962 71.1411 148.867 71.3024 148.867 71.5014C148.867 71.7003 148.962 71.8616 149.08 71.8616Z" fill="#8B1A10"/>
<path d="M150.356 71.3814C150.474 71.3814 150.569 71.2201 150.569 71.0211C150.569 70.8222 150.474 70.6609 150.356 70.6609C150.239 70.6609 150.143 70.8222 150.143 71.0211C150.143 71.2201 150.239 71.3814 150.356 71.3814Z" fill="#8B1A10"/>
<path d="M150.356 74.5036C150.474 74.5036 150.569 74.3423 150.569 74.1433C150.569 73.9444 150.474 73.7831 150.356 73.7831C150.239 73.7831 150.143 73.9444 150.143 74.1433C150.143 74.3423 150.239 74.5036 150.356 74.5036Z" fill="#8B1A10"/>
<path d="M151.632 72.5821C151.75 72.5821 151.845 72.4208 151.845 72.2218C151.845 72.0229 151.75 71.8616 151.632 71.8616C151.515 71.8616 151.42 72.0229 151.42 72.2218C151.42 72.4208 151.515 72.5821 151.632 72.5821Z" fill="#8B1A10"/>
<path d="M151.42 75.2242C151.537 75.2242 151.632 75.0629 151.632 74.8639C151.632 74.665 151.537 74.5037 151.42 74.5037C151.302 74.5037 151.207 74.665 151.207 74.8639C151.207 75.0629 151.302 75.2242 151.42 75.2242Z" fill="#8B1A10"/>
<path d="M148.867 74.0233C148.985 74.0233 149.08 73.862 149.08 73.663C149.08 73.464 148.985 73.3027 148.867 73.3027C148.75 73.3027 148.654 73.464 148.654 73.663C148.654 73.862 148.75 74.0233 148.867 74.0233Z" fill="#8B1A10"/>
<path d="M133.339 77.1455C135.218 77.1455 136.742 75.425 136.742 73.3027C136.742 71.1804 135.218 69.46 133.339 69.46C131.459 69.46 129.935 71.1804 129.935 73.3027C129.935 75.425 131.459 77.1455 133.339 77.1455Z" fill="#8B1A10"/>
<path opacity="0.2" d="M135.891 73.5428C135.891 74.3072 135.622 75.0403 135.144 75.5808C134.665 76.1213 134.016 76.4249 133.339 76.4249C132.662 76.4249 132.012 76.1213 131.534 75.5808C131.055 75.0403 130.786 74.3072 130.786 73.5428" fill="black"/>
<path opacity="0.2" d="M130.786 73.0625C130.786 72.2981 131.055 71.5651 131.534 71.0246C132.012 70.4841 132.662 70.1804 133.339 70.1804C134.016 70.1804 134.665 70.4841 135.144 71.0246C135.622 71.5651 135.891 72.2981 135.891 73.0625" fill="black"/>
<path d="M132.062 72.342C132.18 72.342 132.275 72.1807 132.275 71.9817C132.275 71.7828 132.18 71.6215 132.062 71.6215C131.945 71.6215 131.849 71.7828 131.849 71.9817C131.849 72.1807 131.945 72.342 132.062 72.342Z" fill="#8B1A10"/>
<path d="M133.339 71.8616C133.456 71.8616 133.551 71.7003 133.551 71.5014C133.551 71.3024 133.456 71.1411 133.339 71.1411C133.221 71.1411 133.126 71.3024 133.126 71.5014C133.126 71.7003 133.221 71.8616 133.339 71.8616Z" fill="#8B1A10"/>
<path d="M133.339 74.9839C133.456 74.9839 133.551 74.8227 133.551 74.6237C133.551 74.4247 133.456 74.2634 133.339 74.2634C133.221 74.2634 133.126 74.4247 133.126 74.6237C133.126 74.8227 133.221 74.9839 133.339 74.9839Z" fill="#8B1A10"/>
<path d="M134.615 73.0624C134.732 73.0624 134.828 72.9011 134.828 72.7022C134.828 72.5032 134.732 72.3419 134.615 72.3419C134.497 72.3419 134.402 72.5032 134.402 72.7022C134.402 72.9011 134.497 73.0624 134.615 73.0624Z" fill="#8B1A10"/>
<path d="M134.402 75.7044C134.52 75.7044 134.615 75.5431 134.615 75.3441C134.615 75.1452 134.52 74.9839 134.402 74.9839C134.285 74.9839 134.189 75.1452 134.189 75.3441C134.189 75.5431 134.285 75.7044 134.402 75.7044Z" fill="#8B1A10"/>
<path d="M131.85 74.5036C131.967 74.5036 132.062 74.3423 132.062 74.1433C132.062 73.9444 131.967 73.7831 131.85 73.7831C131.732 73.7831 131.637 73.9444 131.637 74.1433C131.637 74.3423 131.732 74.5036 131.85 74.5036Z" fill="#8B1A10"/>
<path d="M140.996 78.8267C142.876 78.8267 144.4 77.1062 144.4 74.9839C144.4 72.8616 142.876 71.1411 140.996 71.1411C139.117 71.1411 137.593 72.8616 137.593 74.9839C137.593 77.1062 139.117 78.8267 140.996 78.8267Z" fill="#8B1A10"/>
<path opacity="0.2" d="M143.549 75.224C143.549 75.6025 143.483 75.9772 143.355 76.3269C143.227 76.6766 143.038 76.9943 142.801 77.2619C142.564 77.5296 142.283 77.7418 141.973 77.8867C141.664 78.0315 141.332 78.1061 140.996 78.1061C140.661 78.1061 140.329 78.0315 140.02 77.8867C139.71 77.7418 139.429 77.5296 139.191 77.2619C138.954 76.9943 138.766 76.6766 138.638 76.3269C138.51 75.9772 138.444 75.6025 138.444 75.224" fill="black"/>
<path opacity="0.2" d="M138.444 74.7437C138.444 74.3652 138.51 73.9904 138.638 73.6407C138.766 73.2911 138.954 72.9733 139.191 72.7057C139.429 72.4381 139.71 72.2258 140.02 72.081C140.329 71.9361 140.661 71.8616 140.996 71.8616C141.332 71.8616 141.664 71.9361 141.973 72.081C142.283 72.2258 142.564 72.4381 142.801 72.7057C143.038 72.9733 143.227 73.2911 143.355 73.6407C143.483 73.9904 143.549 74.3652 143.549 74.7437" fill="black"/>
<path d="M139.72 74.0233C139.838 74.0233 139.933 73.862 139.933 73.663C139.933 73.464 139.838 73.3027 139.72 73.3027C139.603 73.3027 139.507 73.464 139.507 73.663C139.507 73.862 139.603 74.0233 139.72 74.0233Z" fill="#8B1A10"/>
<path d="M140.996 73.5429C141.114 73.5429 141.209 73.3816 141.209 73.1826C141.209 72.9837 141.114 72.8224 140.996 72.8224C140.879 72.8224 140.784 72.9837 140.784 73.1826C140.784 73.3816 140.879 73.5429 140.996 73.5429Z" fill="#8B1A10"/>
<path d="M140.996 76.6651C141.114 76.6651 141.209 76.5038 141.209 76.3048C141.209 76.1059 141.114 75.9446 140.996 75.9446C140.879 75.9446 140.784 76.1059 140.784 76.3048C140.784 76.5038 140.879 76.6651 140.996 76.6651Z" fill="#8B1A10"/>
<path d="M142.273 74.7437C142.39 74.7437 142.485 74.5824 142.485 74.3835C142.485 74.1845 142.39 74.0232 142.273 74.0232C142.155 74.0232 142.06 74.1845 142.06 74.3835C142.06 74.5824 142.155 74.7437 142.273 74.7437Z" fill="#8B1A10"/>
<path d="M142.06 77.3857C142.178 77.3857 142.273 77.2244 142.273 77.0254C142.273 76.8265 142.178 76.6652 142.06 76.6652C141.943 76.6652 141.847 76.8265 141.847 77.0254C141.847 77.2244 141.943 77.3857 142.06 77.3857Z" fill="#8B1A10"/>
<path d="M139.507 76.1848C139.625 76.1848 139.72 76.0235 139.72 75.8245C139.72 75.6255 139.625 75.4642 139.507 75.4642C139.39 75.4642 139.295 75.6255 139.295 75.8245C139.295 76.0235 139.39 76.1848 139.507 76.1848Z" fill="#8B1A10"/>
<path d="M146.314 82.9096C148.194 82.9096 149.718 81.1891 149.718 79.0668C149.718 76.9445 148.194 75.224 146.314 75.224C144.435 75.224 142.911 76.9445 142.911 79.0668C142.911 81.1891 144.435 82.9096 146.314 82.9096Z" fill="#FF6584"/>
<path opacity="0.2" d="M148.867 79.307C148.867 80.0714 148.598 80.8045 148.119 81.3449C147.641 81.8854 146.991 82.1891 146.314 82.1891C145.637 82.1891 144.988 81.8854 144.509 81.3449C144.031 80.8045 143.762 80.0714 143.762 79.307" fill="black"/>
<path opacity="0.2" d="M143.762 78.8267C143.762 78.0623 144.031 77.3292 144.509 76.7887C144.988 76.2482 145.637 75.9446 146.314 75.9446C146.991 75.9446 147.641 76.2482 148.119 76.7887C148.598 77.3292 148.867 78.0623 148.867 78.8267" fill="black"/>
<path d="M145.038 78.1061C145.156 78.1061 145.251 77.9448 145.251 77.7459C145.251 77.5469 145.156 77.3856 145.038 77.3856C144.921 77.3856 144.825 77.5469 144.825 77.7459C144.825 77.9448 144.921 78.1061 145.038 78.1061Z" fill="#FF6584"/>
<path d="M146.315 77.6258C146.432 77.6258 146.527 77.4645 146.527 77.2655C146.527 77.0666 146.432 76.9053 146.315 76.9053C146.197 76.9053 146.102 77.0666 146.102 77.2655C146.102 77.4645 146.197 77.6258 146.315 77.6258Z" fill="#FF6584"/>
<path d="M146.315 80.7481C146.432 80.7481 146.527 80.5868 146.527 80.3878C146.527 80.1889 146.432 80.0276 146.315 80.0276C146.197 80.0276 146.102 80.1889 146.102 80.3878C146.102 80.5868 146.197 80.7481 146.315 80.7481Z" fill="#FF6584"/>
<path d="M147.591 78.8267C147.708 78.8267 147.803 78.6654 147.803 78.4665C147.803 78.2675 147.708 78.1062 147.591 78.1062C147.473 78.1062 147.378 78.2675 147.378 78.4665C147.378 78.6654 147.473 78.8267 147.591 78.8267Z" fill="#FF6584"/>
<path d="M147.378 81.4686C147.495 81.4686 147.591 81.3073 147.591 81.1083C147.591 80.9093 147.495 80.748 147.378 80.748C147.261 80.748 147.165 80.9093 147.165 81.1083C147.165 81.3073 147.261 81.4686 147.378 81.4686Z" fill="#FF6584"/>
<path d="M144.825 80.2676C144.943 80.2676 145.038 80.1064 145.038 79.9074C145.038 79.7084 144.943 79.5471 144.825 79.5471C144.708 79.5471 144.613 79.7084 144.613 79.9074C144.613 80.1064 144.708 80.2676 144.825 80.2676Z" fill="#FF6584"/>
<path d="M102.546 65.4348C103.044 65.4348 103.448 64.9788 103.448 64.4163C103.448 63.8537 103.044 63.3977 102.546 63.3977C102.047 63.3977 101.643 63.8537 101.643 64.4163C101.643 64.9788 102.047 65.4348 102.546 65.4348Z" fill="#3F3D56"/>
<path d="M127.067 101.388L105.401 94.6039L106.231 91.123L127.897 97.9073L127.067 101.388Z" fill="#F9A825"/>
<path d="M123.891 100.225C116.472 101.828 108.85 101.828 101.431 100.225V96.6163C108.867 98.0078 116.455 98.0078 123.891 96.6163V100.225Z" fill="#F9A825"/>
<path d="M126.2 89.4C118.781 91.0036 111.159 91.0036 103.74 89.4V85.7917C111.176 87.1832 118.764 87.1832 126.2 85.7917V89.4Z" fill="#F9A825"/>
<path d="M133.967 93.7297C126.547 95.3333 118.926 95.3333 111.506 93.7297V90.1215C118.943 91.513 126.531 91.513 133.967 90.1215V93.7297Z" fill="#F9A825"/>
<path d="M135.856 97.8192C128.437 99.4228 120.815 99.4228 113.396 97.8192V94.2109C120.832 95.6024 128.42 95.6024 135.856 94.2109V97.8192Z" fill="#F9A825"/>
<path d="M142.443 103.163L120.283 107.365L119.769 103.805L141.928 99.6027L142.443 103.163Z" fill="#F9A825"/>
<path d="M139.133 103.625C132.989 108.625 126.065 112.271 118.724 114.372L117.409 111.094C124.686 108.793 131.58 105.163 137.818 100.347L139.133 103.625Z" fill="#F9A825"/>
<path d="M137.286 92.6844C131.143 97.6844 124.219 101.331 116.878 103.432L115.563 100.153C122.84 97.8524 129.734 94.2219 135.972 89.4058L137.286 92.6844Z" fill="#F9A825"/>
<path d="M145.921 92.9024C139.778 97.9024 132.854 101.549 125.513 103.65L124.198 100.371C131.475 98.0704 138.369 94.44 144.607 89.6238L145.921 92.9024Z" fill="#F9A825"/>
<path d="M149.128 95.7143C142.984 100.714 136.06 104.361 128.719 106.462L127.405 103.183C134.681 100.882 141.576 97.2518 147.813 92.4357L149.128 95.7143Z" fill="#F9A825"/>
<path d="M122.277 88.6738H121.214V89.8747H122.277V88.6738Z" fill="#00BF71"/>
<path d="M125.468 109.569H124.404V110.77H125.468V109.569Z" fill="#00BF71"/>
<path d="M108.45 88.6738H107.387V89.8747H108.45V88.6738Z" fill="#00BF71"/>
<path d="M133.126 103.565H132.062V104.765H133.126V103.565Z" fill="#00BF71"/>
<path d="M133.764 96.5996H132.7V97.8005H133.764V96.5996Z" fill="#00BF71"/>
<path d="M116.219 93.3116L114.987 92.3677L114.509 93.1627L115.741 94.1066L116.219 93.3116Z" fill="#00BF71"/>
<path d="M128.769 95.9534L127.537 95.0095L127.059 95.8045L128.292 96.7484L128.769 95.9534Z" fill="#00BF71"/>
<path d="M113.453 100.517L112.221 99.5729L111.744 100.368L112.976 101.312L113.453 100.517Z" fill="#00BF71"/>
<path d="M121.254 100.447L122.09 99.0557L121.386 98.5163L120.55 99.9075L121.254 100.447Z" fill="#00BF71"/>
<path d="M126.997 102.128L127.833 100.737L127.129 100.198L126.293 101.589L126.997 102.128Z" fill="#00BF71"/>
<path d="M142.315 96.3636L143.151 94.9724L142.447 94.433L141.611 95.8243L142.315 96.3636Z" fill="#00BF71"/>
<path d="M243 137.589H0V138.281H243V137.589Z" fill="#3F3D56"/>
</svg>
